<?xml version="1.0" encoding="utf-8"?>
<svg viewBox="0 0 1920 1920" xmlns="http://www.w3.org/2000/svg">
    <symbol id="icon-info" viewBox="0 0 1920 1920">
        <path d="M960 0c530.193 0 960 429.807 960 960s-429.807 960-960 960S0 1490.193 0 960 429.807 0 960 0Zm0 101.053c-474.384 0-858.947 384.563-858.947 858.947S485.616 1818.947 960 1818.947 1818.947 1434.384 1818.947 960 1434.384 101.053 960 101.053Zm-42.074 626.795c-85.075 39.632-157.432 107.975-229.844 207.898-10.327 14.249-10.744 22.907-.135 30.565 7.458 5.384 11.792 3.662 22.656-7.928 1.453-1.562 1.453-1.562 2.94-3.174 9.391-10.17 16.956-18.8 33.115-37.565 53.392-62.005 79.472-87.526 120.003-110.867 35.075-20.198 65.9 9.485 60.03 47.471-1.647 10.664-4.483 18.534-11.791 35.432-2.907 6.722-4.133 9.646-5.496 13.23-13.173 34.63-24.269 63.518-47.519 123.85l-1.112 2.886c-7.03 18.242-7.03 18.242-14.053 36.48-30.45 79.138-48.927 127.666-67.991 178.988l-1.118 3.008a10180.575 10180.575 0 0 0-10.189 27.469c-21.844 59.238-34.337 97.729-43.838 138.668-1.484 6.37-1.484 6.37-2.988 12.845-5.353 23.158-8.218 38.081-9.82 53.42-2.77 26.522-.543 48.24 7.792 66.493 9.432 20.655 29.697 35.43 52.819 38.786 38.518 5.592 75.683 5.194 107.515-2.048 17.914-4.073 35.638-9.405 53.03-15.942 50.352-18.932 98.861-48.472 145.846-87.52 41.11-34.26 80.008-76 120.788-127.872 3.555-4.492 3.555-4.492 7.098-8.976 12.318-15.707 18.352-25.908 20.605-36.683 2.45-11.698-7.439-23.554-15.343-19.587-3.907 1.96-7.993 6.018-14.22 13.872-4.454 5.715-6.875 8.77-9.298 11.514-9.671 10.95-19.883 22.157-30.947 33.998-18.241 19.513-36.775 38.608-63.656 65.789-13.69 13.844-30.908 25.947-49.42 35.046-29.63 14.559-56.358-3.792-53.148-36.635 2.118-21.681 7.37-44.096 15.224-65.767 17.156-47.367 31.183-85.659 62.216-170.048 13.459-36.6 19.27-52.41 26.528-72.201 21.518-58.652 38.696-105.868 55.04-151.425 20.19-56.275 31.596-98.224 36.877-141.543 3.987-32.673-5.103-63.922-25.834-85.405-22.986-23.816-55.68-34.787-96.399-34.305-45.053.535-97.607 15.256-145.963 37.783Zm308.381-388.422c-80.963-31.5-178.114 22.616-194.382 108.33-11.795 62.124 11.412 115.76 58.78 138.225 93.898 44.531 206.587-26.823 206.592-130.826.005-57.855-24.705-97.718-70.99-115.729Z" fill-rule="evenodd"/>
    </symbol>
    <symbol id="icon-sun" viewBox="0 0 24 24">
        <path d="M12 18C15.3137 18 18 15.3137 18 12C18 8.68629 15.3137 6 12 6C8.68629 6 6 8.68629 6 12C6 15.3137 8.68629 18 12 18Z" stroke="#000000" stroke-width="1.5" stroke-linecap="round" stroke-linejoin="round"/>
        <path d="M22 12L23 12" stroke="#000000" stroke-width="1.5" stroke-linecap="round" stroke-linejoin="round"/>
        <path d="M12 2V1" stroke="#000000" stroke-width="1.5" stroke-linecap="round" stroke-linejoin="round"/>
        <path d="M12 23V22" stroke="#000000" stroke-width="1.5" stroke-linecap="round" stroke-linejoin="round"/>
        <path d="M20 20L19 19" stroke="#000000" stroke-width="1.5" stroke-linecap="round" stroke-linejoin="round"/>
        <path d="M20 4L19 5" stroke="#000000" stroke-width="1.5" stroke-linecap="round" stroke-linejoin="round"/>
        <path d="M4 20L5 19" stroke="#000000" stroke-width="1.5" stroke-linecap="round" stroke-linejoin="round"/>
        <path d="M4 4L5 5" stroke="#000000" stroke-width="1.5" stroke-linecap="round" stroke-linejoin="round"/>
        <path d="M1 12L2 12" stroke="#000000" stroke-width="1.5" stroke-linecap="round" stroke-linejoin="round"/>
    </symbol>
    <symbol id="icon-moon" viewBox="0 0 24 24">
        <path d="M3.32031 11.6835C3.32031 16.6541 7.34975 20.6835 12.3203 20.6835C16.1075 20.6835 19.3483 18.3443 20.6768 15.032C19.6402 15.4486 18.5059 15.6834 17.3203 15.6834C12.3497 15.6834 8.32031 11.654 8.32031 6.68342C8.32031 5.50338 8.55165 4.36259 8.96453 3.32996C5.65605 4.66028 3.32031 7.89912 3.32031 11.6835Z" stroke="#000000" stroke-width="2" stroke-linecap="round" stroke-linejoin="round"/>
    </symbol>
    <symbol id="icon-reset" viewBox="0 0 21 21">
        <g fill="none" fill-rule="evenodd" stroke-linecap="round" stroke-linejoin="round" transform="matrix(0 1 1 0 2.5 2.5)">
            <path d="m3.98652376 1.07807068c-2.38377179 1.38514556-3.98652376 3.96636605-3.98652376 6.92192932 0 4.418278 3.581722 8 8 8s8-3.581722 8-8-3.581722-8-8-8"/>
            <path d="m4 1v4h-4" transform="matrix(1 0 0 -1 0 6)"/>
        </g>
    </symbol>
    <symbol id="icon-miss" viewBox="0 0 64 64">
        <line x1="8.06" y1="8.06" x2="55.41" y2="55.94"/><line x1="55.94" y1="8.06" x2="8.59" y2="55.94"/>
    </symbol>
    <symbol id="icon-splash" viewBox="0 0 512 512">
        <path d="M163.53 21.28c-4.262.042-8.402 1.318-11.936 3.782-14.61 10.188-21.734 41.505 11.03 69.97-.874 22.855 41.786 26.99 24.845-6.657 15.375-44.718-5.465-67.27-23.94-67.094zm255.25 9.564c-6.193.008-12.997 2.884-16.78 8.625-23.15 35.122 1.875 53.016 25.875 14.936 9.863-15.65 1.23-23.575-9.094-23.562zm-41.717 63.468c-63.42 56.883-111.03 138.435-247.688 80.938 18.578 53.492-6.768 71.09-31.313 76.28-8.846-6.104-17.503-14.193-25.374-24.28l-19.282-24.72 2.625 31.25c5.134 61.565 27.576 107.054 64.782 136.376 37.207 29.322 88.146 42.22 149.25 42.22 95.388 0 181.77-60.905 213.563-148l5.344-14.657-15.408 2.186c-5.34.757-9.54.544-12.812-.28l31.688-60.157c-14.324 6.135-29.355 13.593-43.97 20.25 1.73-13.324 5.75-30.14 12.72-50.282l10.312-29.875L446.594 151c-25.463 19.87-52.84 43.613-79.78 63.25-8.948-17.862-7.626-54.075 10.248-119.938zM33.188 139.906c-8.878-.007-18.012 11.466-15.688 22.688 6.156 29.728 35.794 21.19 28.844-7.75-2.593-10.795-7.83-14.934-13.157-14.938zm401.343 44.906c-6.213 24.132-7.675 43.034-3.936 57.844 2.573 10.193 8.258 18.705 16.562 23.5 4.09 2.36 8.58 3.803 13.375 4.47-29.9 20.703-73.522 6.61-53.53-46.72-85.188 114.645-173.707 126.336-202.156 39.125-14.613 86.63-105.328 67.462-125.75-2.342 22.01 18.3 47.298 26.824 70.656 22.25 15.653-3.066 29.977-12.394 40.25-27.438 5.99-8.77 10.622-19.464 13.813-32 13.008 21.732 28.002 35.802 44.812 43.094 22.92 9.942 47.727 6.613 71.688-3.22 39.206-16.086 78.357-49.144 114.218-78.562zm-6 179.688c11.396 7.638 18.095 16.212 18.095 25.125 0 32.772-85.57 59.563-190.375 59.563-104.804 0-189.813-26.79-189.813-59.563 0-8.645 6.17-17.1 16.938-24.53-39.8 13.298-64.844 31.22-64.844 50.81 0 41.02 106.547 74.158 237.72 74.158s237.688-33.137 237.688-74.157c0-19.793-24.892-38.038-65.407-51.406z"/>
    </symbol>
    <symbol id="icon-boom" viewBox="0 0 32 32">
        <path stroke="#ff0000"  d="M30.79 20.247v-1.813c-3.349-1.335-5.321-2.581-5.928-4.568-0.498-1.631 1.004-3.801 3.836-6.416-2.958 1.621-5.135 2.722-5.997 1.185-0.774-1.38 0.093-3.966 1.464-7.357h-0.976c-1.094 1.731-2.025 3.044-2.371 2.72-0.301-0.283-0.305-1.301-0.174-2.72l-2.022-0.001c-1.338 2.997-2.757 4.695-4.812 4.986-1.756 0.249-4.029-1.814-6.59-4.742 1.458 2.894 1.994 5.215 1.011 5.788-1.162 0.678-3.491-0.121-6.939-1.569v0.662c2.372 1.506 4.557 2.975 4.149 3.522-0.358 0.48-1.992 0.397-4.149 0.105v1.709c3.121 1.576 4.812 3.193 4.812 4.707 0 1.302-2.601 3.961-4.812 6.067v1.011c1.995-0.654 4.443-0.908 5.265 0.558 0.839 1.495 0.276 3.611-0.802 6.695h1.848c1.958-2.645 3.819-4.766 4.812-4.672 0.703 0.066 0.375 2.225-0.105 4.672h0.558c1.743-4.845 3.892-7.814 7.078-7.706 2.796 0.096 5.449 2.91 8.368 4.916-1.526-1.867-4.337-4.526-3.731-5.021 0.637-0.521 3.367 0.432 6.207 1.464v-0.907c-1.863-1.271-3.576-2.492-3.138-2.929 0.394-0.393 1.596-0.456 3.138-0.349zM21.948 18.081c-0.335 0.334 1.759 1.577 2.956 2.438-1.81-0.632-4.092-1.582-4.518-1.234-0.308 0.252 1.12 1.603 1.897 2.553-1.485-1.021-2.845-2.448-4.267-2.496-2.092-0.071-3.29 2.442-4.323 6.282 0.272-1.823 1.089-4.679 0.502-4.733-0.833-0.078-2.846 2.892-4.351 5.106 1.051-3.185 2.006-5 1.367-6.139-0.577-1.029-2.744-0.403-3.682 0.143 1.105-1.043 3.447-3.141 3.447-4.025 0-1.286-2.32-2.733-6.599-3.951 2.572 0.405 5.888 1.149 6.275 0.631 0.303-0.405-2.192-1.813-3.71-2.811 2.672 1.146 4.365 1.92 5.122 1.479 0.5-0.292 0.222-1.47-0.52-2.942 1.303 1.489 2.471 2.538 3.364 2.411 1.884-0.267 2.698-2.76 4.166-7.518l0 0c-0.345 2.648-1.044 5.965-0.614 6.369 0.322 0.303 1.636-2.144 2.65-3.701-1.144 2.886-2.245 5.056-1.69 6.045 0.439 0.782 1.552 0.23 3.056-0.594-1.44 1.33-2.214 2.433-1.961 3.263 0.503 1.647 2.857 2.292 7.065 3.766-2.161-0.28-5.135-0.842-5.634-0.344z"></path>
    </symbol>
</svg>