<?xml version="1.0" encoding="utf-8"?>
<svg viewBox="0 0 1920 1920" xmlns="http://www.w3.org/2000/svg">
    <symbol id="icon-info" viewBox="0 0 1920 1920">
        <path d="M960 0c530.193 0 960 429.807 960 960s-429.807 960-960 960S0 1490.193 0 960 429.807 0 960 0Zm0 101.053c-474.384 0-858.947 384.563-858.947 858.947S485.616 1818.947 960 1818.947 1818.947 1434.384 1818.947 960 1434.384 101.053 960 101.053Zm-42.074 626.795c-85.075 39.632-157.432 107.975-229.844 207.898-10.327 14.249-10.744 22.907-.135 30.565 7.458 5.384 11.792 3.662 22.656-7.928 1.453-1.562 1.453-1.562 2.94-3.174 9.391-10.17 16.956-18.8 33.115-37.565 53.392-62.005 79.472-87.526 120.003-110.867 35.075-20.198 65.9 9.485 60.03 47.471-1.647 10.664-4.483 18.534-11.791 35.432-2.907 6.722-4.133 9.646-5.496 13.23-13.173 34.63-24.269 63.518-47.519 123.85l-1.112 2.886c-7.03 18.242-7.03 18.242-14.053 36.48-30.45 79.138-48.927 127.666-67.991 178.988l-1.118 3.008a10180.575 10180.575 0 0 0-10.189 27.469c-21.844 59.238-34.337 97.729-43.838 138.668-1.484 6.37-1.484 6.37-2.988 12.845-5.353 23.158-8.218 38.081-9.82 53.42-2.77 26.522-.543 48.24 7.792 66.493 9.432 20.655 29.697 35.43 52.819 38.786 38.518 5.592 75.683 5.194 107.515-2.048 17.914-4.073 35.638-9.405 53.03-15.942 50.352-18.932 98.861-48.472 145.846-87.52 41.11-34.26 80.008-76 120.788-127.872 3.555-4.492 3.555-4.492 7.098-8.976 12.318-15.707 18.352-25.908 20.605-36.683 2.45-11.698-7.439-23.554-15.343-19.587-3.907 1.96-7.993 6.018-14.22 13.872-4.454 5.715-6.875 8.77-9.298 11.514-9.671 10.95-19.883 22.157-30.947 33.998-18.241 19.513-36.775 38.608-63.656 65.789-13.69 13.844-30.908 25.947-49.42 35.046-29.63 14.559-56.358-3.792-53.148-36.635 2.118-21.681 7.37-44.096 15.224-65.767 17.156-47.367 31.183-85.659 62.216-170.048 13.459-36.6 19.27-52.41 26.528-72.201 21.518-58.652 38.696-105.868 55.04-151.425 20.19-56.275 31.596-98.224 36.877-141.543 3.987-32.673-5.103-63.922-25.834-85.405-22.986-23.816-55.68-34.787-96.399-34.305-45.053.535-97.607 15.256-145.963 37.783Zm308.381-388.422c-80.963-31.5-178.114 22.616-194.382 108.33-11.795 62.124 11.412 115.76 58.78 138.225 93.898 44.531 206.587-26.823 206.592-130.826.005-57.855-24.705-97.718-70.99-115.729Z" fill-rule="evenodd"/>
    </symbol>
    <symbol id="icon-sun" viewBox="0 0 24 24">
        <path d="M12 18C15.3137 18 18 15.3137 18 12C18 8.68629 15.3137 6 12 6C8.68629 6 6 8.68629 6 12C6 15.3137 8.68629 18 12 18Z" stroke="#000000" stroke-width="1.5" stroke-linecap="round" stroke-linejoin="round"/>
        <path d="M22 12L23 12" stroke="#000000" stroke-width="1.5" stroke-linecap="round" stroke-linejoin="round"/>
        <path d="M12 2V1" stroke="#000000" stroke-width="1.5" stroke-linecap="round" stroke-linejoin="round"/>
        <path d="M12 23V22" stroke="#000000" stroke-width="1.5" stroke-linecap="round" stroke-linejoin="round"/>
        <path d="M20 20L19 19" stroke="#000000" stroke-width="1.5" stroke-linecap="round" stroke-linejoin="round"/>
        <path d="M20 4L19 5" stroke="#000000" stroke-width="1.5" stroke-linecap="round" stroke-linejoin="round"/>
        <path d="M4 20L5 19" stroke="#000000" stroke-width="1.5" stroke-linecap="round" stroke-linejoin="round"/>
        <path d="M4 4L5 5" stroke="#000000" stroke-width="1.5" stroke-linecap="round" stroke-linejoin="round"/>
        <path d="M1 12L2 12" stroke="#000000" stroke-width="1.5" stroke-linecap="round" stroke-linejoin="round"/>
    </symbol>
    <symbol id="icon-moon" viewBox="0 0 24 24">
        <path d="M3.32031 11.6835C3.32031 16.6541 7.34975 20.6835 12.3203 20.6835C16.1075 20.6835 19.3483 18.3443 20.6768 15.032C19.6402 15.4486 18.5059 15.6834 17.3203 15.6834C12.3497 15.6834 8.32031 11.654 8.32031 6.68342C8.32031 5.50338 8.55165 4.36259 8.96453 3.32996C5.65605 4.66028 3.32031 7.89912 3.32031 11.6835Z" stroke="#000000" stroke-width="2" stroke-linecap="round" stroke-linejoin="round"/>
    </symbol>
    <symbol id="icon-reset" viewBox="0 0 21 21">
        <g fill="none" fill-rule="evenodd" stroke-linecap="round" stroke-linejoin="round" transform="matrix(0 1 1 0 2.5 2.5)">
            <path d="m3.98652376 1.07807068c-2.38377179 1.38514556-3.98652376 3.96636605-3.98652376 6.92192932 0 4.418278 3.581722 8 8 8s8-3.581722 8-8-3.581722-8-8-8"/>
            <path d="m4 1v4h-4" transform="matrix(1 0 0 -1 0 6)"/>
        </g>
    </symbol>
    <symbol id="icon-miss" viewBox="0 0 64 64">
        <line x1="8.06" y1="8.06" x2="55.41" y2="55.94"/><line x1="55.94" y1="8.06" x2="8.59" y2="55.94"/>
    </symbol>
</svg>